<?xml version="1.0" encoding="iso-8859-1"?>
<!-- Uploaded to: SVG Repo, www.svgrepo.com, Generator: SVG Repo Mixer Tools -->
<svg version="1.1" id="Layer_1" xmlns="http://www.w3.org/2000/svg" xmlns:xlink="http://www.w3.org/1999/xlink" 
	 viewBox="0 0 512 512" xml:space="preserve">
<path id="SVGCleanerId_0" style="fill:url(#paint0_linear);" d="M407.47,216.547l24.252-17.97l-19.634-47.401l-29.856,4.442
	c-10.547-15.161-23.573-27.967-38.263-38.188l4.452-29.923l-47.401-19.632l-18.01,24.307c-17.614-3.16-35.882-3.317-54.059-0.053
	l-17.968-24.253l-47.402,19.635l4.442,29.856c-15.16,10.547-27.965,23.573-38.187,38.263l-29.923-4.453l-19.635,47.401l24.307,18.01
	c-3.161,17.615-3.317,35.882-0.055,54.059l-24.252,17.97l19.635,47.401l29.856-4.442c10.547,15.161,23.573,27.967,38.263,38.187
	l-4.452,29.923l47.402,19.634l18.009-24.306l1.357,0.001v-79.002c-29.87-10.576-51.307-38.992-51.307-72.487
	c0-42.503,34.456-76.96,76.96-76.96c42.505,0,76.96,34.457,76.96,76.96c0,33.495-21.437,61.911-51.307,72.487v79.051l1.397,0.001
	l17.969,24.253l47.402-19.634l-4.442-29.856c15.16-10.547,27.968-23.573,38.188-38.263l29.922,4.452l19.634-47.401l-24.307-18.01
	C410.576,252.991,410.732,234.725,407.47,216.547z"/>
<path style="fill:url(#paint1_linear);" d="M230.347,25.119v393.353l22.704,83.25c0.819,3.004,5.078,3.004,5.898,0l22.704-83.25V25.119
	c0-9.446-7.656-17.102-17.102-17.102h-17.102C238.003,8.017,230.347,15.674,230.347,25.119z"/>
<rect x="230.347" y="50.772" style="fill:#url(#paint2_linear);" width="51.307" height="367.699"/>
<rect x="230.347" y="50.772" style="fill:url(#paint3_linear);" width="25.653" height="367.699"/>
<path style="fill:url(#paint4_linear);" d="M230.347,418.472L230.347,418.472l22.704,83.25c0.409,1.502,1.679,2.252,2.949,2.252v-85.502H230.347
	z"/>
<g>
	<path id="SVGCleanerId_0_1_" style="fill:url(#paint5_linear);" d="M407.47,216.547l24.252-17.97l-19.634-47.401l-29.856,4.442
		c-10.547-15.161-23.573-27.967-38.263-38.188l4.452-29.923l-47.401-19.632l-18.01,24.307c-17.614-3.16-35.882-3.317-54.059-0.053
		l-17.968-24.253l-47.402,19.635l4.442,29.856c-15.16,10.547-27.965,23.573-38.187,38.263l-29.923-4.453l-19.635,47.401
		l24.307,18.01c-3.161,17.615-3.317,35.882-0.055,54.059l-24.252,17.97l19.635,47.401l29.856-4.442
		c10.547,15.161,23.573,27.967,38.263,38.187l-4.452,29.923l47.402,19.634l18.009-24.306l1.357,0.001v-79.002
		c-29.87-10.576-51.307-38.992-51.307-72.487c0-42.503,34.456-76.96,76.96-76.96c42.505,0,76.96,34.457,76.96,76.96
		c0,33.495-21.437,61.911-51.307,72.487v79.051l1.397,0.001l17.969,24.253l47.402-19.634l-4.442-29.856
		c15.16-10.547,27.968-23.573,38.188-38.263l29.922,4.452l19.634-47.401l-24.307-18.01
		C410.576,252.991,410.732,234.725,407.47,216.547z"/>
</g>
<path style="fill:url(#paint6_linear);" d="M256,50.772h-25.653V25.119c0-9.446,7.656-17.102,17.102-17.102H256V50.772z"/>
<path style="fill:url(#paint7_linear);" d="M358.704,201.056c-25.075-60.534-97.451-87.144-156.553-54.735
	c-44.387,24.339-66.848,77.276-53.532,126.115c8.693,31.881,29.813,55.788,56.075,69.435v74.843l6.288,2.605l18.009-24.306
	l1.357,0.001v-79.002c-29.87-10.576-51.307-38.992-51.307-72.487c0-42.503,34.456-76.96,76.96-76.96
	c42.505,0,76.96,34.457,76.96,76.96c0,33.495-21.437,61.911-51.307,72.487v79.051l1.397,0.001l17.969,24.253l6.288-2.605v-74.645
	C357.916,315.759,380.94,254.74,358.704,201.056z"/>
<path d="M436.494,282.174l-20.377-15.098c2.325-15.684,2.343-31.45,0.051-46.996l20.326-15.061c2.956-2.19,4.042-6.111,2.634-9.509
	l-19.634-47.401c-1.408-3.399-4.952-5.405-8.586-4.861l-25.022,3.723c-9.373-12.613-20.532-23.748-33.269-33.196l3.734-25.086
	c0.541-3.639-1.463-7.179-4.861-8.586l-47.401-19.633c-3.398-1.408-7.32-0.322-9.509,2.634l-4.908,6.623V25.119
	C289.67,11.268,278.402,0,264.551,0h-17.102c-13.851,0-25.119,11.268-25.119,25.119v44.607l-4.908-6.624
	c-2.189-2.955-6.11-4.041-9.509-2.634l-47.401,19.633c-3.399,1.408-5.403,4.948-4.861,8.586l3.723,25.023
	c-12.612,9.373-23.747,20.531-33.194,33.268l-25.086-3.733c-3.64-0.543-7.179,1.463-8.586,4.861l-19.635,47.401
	c-1.408,3.399-0.322,7.32,2.634,9.509l20.377,15.098c-2.325,15.684-2.342,31.45-0.051,46.996l-20.326,15.061
	c-2.955,2.19-4.041,6.111-2.634,9.509l19.635,47.402c1.408,3.399,4.952,5.404,8.586,4.861l25.023-3.723
	c9.373,12.613,20.531,23.748,33.268,33.196l-3.734,25.086c-0.541,3.639,1.463,7.179,4.861,8.586l47.401,19.634
	c3.399,1.408,7.32,0.322,9.509-2.634l4.908-6.624v1.005c0,0.78,0.113,1.556,0.338,2.303l25.653,85.511
	C249.339,509.677,252.46,512,256,512c3.54,0,6.661-2.323,7.679-5.713l25.653-85.511c0.224-0.747,0.338-1.523,0.338-2.303v-1.005
	l4.908,6.624c1.548,2.09,3.961,3.245,6.443,3.245c1.028,0,2.069-0.199,3.066-0.61l47.401-19.634
	c3.399-1.408,5.403-4.948,4.861-8.586l-3.723-25.023c12.613-9.373,23.749-20.533,33.196-33.268l25.085,3.733
	c3.64,0.543,7.179-1.463,8.586-4.861l19.634-47.401C440.536,288.285,439.45,284.364,436.494,282.174z M238.363,82.674V58.789h35.273
	v23.934C261.86,81.408,250.06,81.392,238.363,82.674z M247.449,16.033h17.102c5.01,0,9.086,4.076,9.086,9.086v17.637h-35.273V25.119
	C238.363,20.109,242.439,16.033,247.449,16.033z M238.363,410.455V176.963c11.837-3.14,23.967-2.982,35.273,0.026v233.467H238.363z
	 M222.33,303.75c-13.41-7.526-24.082-19.421-30.025-33.77c-13.5-32.592-0.047-69.723,30.025-86.53V303.75z M289.67,183.488
	c13.065,7.301,23.867,18.856,30.025,33.725c7.047,17.014,7.047,35.753,0,52.767c-6.004,14.496-16.524,26.245-30.025,33.768V183.488z
	 M289.67,321.596c20.412-8.802,36.314-24.898,44.839-45.479c8.686-20.971,8.686-44.068,0-65.039
	c-17.932-43.289-67.738-63.919-111.028-45.989c-43.29,17.932-63.92,67.739-45.989,111.028c8.449,20.398,24.65,36.771,44.838,45.5
	v19.482c-27.974-9.609-50.177-30.385-61.626-58.028c-21.765-52.547,3.277-113.005,55.824-134.769s113.003,3.276,134.769,55.823
	c10.544,25.455,10.544,53.492,0,78.946c-10.544,25.455-30.368,45.279-55.823,55.824c-1.909,0.79-3.849,1.512-5.803,2.189v-19.487
	H289.67z M256,476.084l-14.879-49.596h29.757L256,476.084z M407.076,327.167l-23.73-3.531c-3.015-0.449-6.021,0.85-7.761,3.351
	c-9.92,14.259-22.095,26.459-36.185,36.261c-2.501,1.74-3.8,4.747-3.351,7.761l3.521,23.665l-35.836,14.844l-14.063-18.982V357.93
	c4.039-1.196,8.039-2.608,11.938-4.223c29.412-12.182,52.318-35.09,64.5-64.5c12.182-29.411,12.182-61.807,0-91.217
	c-25.149-60.714-95.005-89.648-155.719-64.5c-60.714,25.148-89.649,95.003-64.501,155.719c13.937,33.648,41.659,58.492,76.44,68.717
	v32.613l-14.065,18.981l-35.836-14.844l3.532-23.73c0.448-3.013-0.85-6.021-3.351-7.761c-14.259-9.921-26.459-22.096-36.261-36.185
	c-1.74-2.501-4.747-3.801-7.761-3.351l-23.665,3.521l-14.844-35.836l19.223-14.243c2.449-1.814,3.657-4.859,3.118-7.859
	c-3.031-16.894-3.014-34.13,0.053-51.227c0.538-2.999-0.669-6.044-3.118-7.857l-19.277-14.284l14.844-35.836l23.731,3.531
	c3.013,0.448,6.02-0.85,7.76-3.35c9.923-14.26,22.097-26.46,36.185-36.261c2.501-1.739,3.8-4.747,3.351-7.76l-3.521-23.665
	l35.836-14.844l14.244,19.224c1.814,2.449,4.857,3.656,7.857,3.118c16.892-3.031,34.127-3.014,51.227,0.053
	c2.997,0.538,6.042-0.67,7.856-3.118l14.284-19.278l35.836,14.844l-3.532,23.732c-0.448,3.013,0.85,6.02,3.351,7.76
	c14.26,9.921,26.459,22.096,36.261,36.185c1.74,2.501,4.749,3.802,7.761,3.351l23.665-3.521l14.844,35.835l-19.223,14.244
	c-2.449,1.814-3.657,4.858-3.118,7.857c3.031,16.895,3.014,34.13-0.053,51.227c-0.538,2.999,0.669,6.044,3.118,7.857l19.277,14.284
	L407.076,327.167z"/>
	<defs>
<linearGradient id="paint0_linear" x1="3.15333" y1="1" x2="26.6886" y2="35.0542" gradientUnits="userSpaceOnUse">
<stop offset="0.259336" stop-color="#FFDB6E"/>
<stop offset="1" stop-color="#FFBC5E"/>
</linearGradient>
<linearGradient id="paint1_linear" x1="2.26667" y1="0.375001" x2="27.8327" y2="36.511" gradientUnits="userSpaceOnUse">
<stop offset="0.259336" stop-color="#FFDB6E"/>
<stop offset="1" stop-color="#FFBC5E"/>
</linearGradient>
<linearGradient id="paint2_linear" x1="15.3714" y1="4.22906" x2="15.5472" y2="6.9288" gradientUnits="userSpaceOnUse">
<stop offset="0.259336" stop-color="#FFDB6E"/>
<stop offset="1" stop-color="#FFBC5E"/>
</linearGradient>
<linearGradient id="paint3_linear" x1="4.02043" y1="4.22931" x2="5.36917" y2="5.71887" gradientUnits="userSpaceOnUse">
<stop offset="0.259336" stop-color="#FFDB6E"/>
<stop offset="1" stop-color="#FFBC5E"/>
</linearGradient>
<linearGradient id="paint4_linear" x1="7.14543" y1="4.22931" x2="8.49417" y2="5.71887" gradientUnits="userSpaceOnUse">
<stop offset="0.259336" stop-color="#FFDB6E"/>
<stop offset="1" stop-color="#FFBC5E"/>
</linearGradient>
<linearGradient id="paint5_linear" x1="10.2704" y1="4.22931" x2="11.6189" y2="5.71884" gradientUnits="userSpaceOnUse">
<stop offset="0.259336" stop-color="#FFDB6E"/>
<stop offset="1" stop-color="#FFBC5E"/>
</linearGradient>
<linearGradient id="paint6_linear" x1="17.2521" y1="13.6301" x2="25.0143" y2="19.281" gradientUnits="userSpaceOnUse">
<stop offset="0.259336" stop-color="#FFDB6E"/>
<stop offset="1" stop-color="#FFBC5E"/>
</linearGradient>
<linearGradient id="paint7_linear" x1="10.1144" y1="12.8915" x2="17.4785" y2="16.3959" gradientUnits="userSpaceOnUse">
<stop offset="0.259336" stop-color="#FFDB6E"/>
<stop offset="1" stop-color="#FFBC5E"/>
</linearGradient>
</defs>
</svg>